<svg fill="none" height="24" viewBox="0 0 24 24" width="24" xmlns="http://www.w3.org/2000/svg"><g fill="#292d32"><path d="m16 22.75h-8c-3.65 0-5.75-2.1-5.75-5.75v-10c0-3.65 2.1-5.75 5.75-5.75h8c3.65 0 5.75 2.1 5.75 5.75v10c0 3.65-2.1 5.75-5.75 5.75zm-8-20c-2.86 0-4.25 1.39-4.25 4.25v10c0 2.86 1.39 4.25 4.25 4.25h8c2.86 0 4.25-1.39 4.25-4.25v-10c0-2.86-1.39-4.25-4.25-4.25z"/><path d="m9 11.11c-.17 0-.34-.03-.5-.1-.46-.2-.75-.65-.75-1.14v-7.87c0-.41.34-.75.75-.75h7c.41 0 .75.34.75.75v7.85999c0 .50001-.29.95001-.75 1.14001-.45.2-.98.11-1.35-.23l-2.15-1.97001-2.15002 1.98001c-.24.22-.53998.33-.84998.33zm3-3.89998c.3 0 .61.10996.85.32996l1.9 1.75v-6.53998h-5.5v6.53998l1.9-1.75c.24-.22.55-.32996.85-.32996z"/><path d="m17.5 14.75h-4.25c-.41 0-.75-.34-.75-.75s.34-.75.75-.75h4.25c.41 0 .75.34.75.75s-.34.75-.75.75z"/><path d="m17.5 18.75h-8.5c-.41 0-.75-.34-.75-.75s.34-.75.75-.75h8.5c.41 0 .75.34.75.75s-.34.75-.75.75z"/></g></svg>