<svg viewBox="0 0 24 24" xmlns="http://www.w3.org/2000/svg"><path d="m8.5 11h-2.937a2.5 2.5 0 0 1 -2.5-2.5v-2.936a2.5 2.5 0 0 1 2.5-2.5h2.937a2.5 2.5 0 0 1 2.5 2.5v2.936a2.5 2.5 0 0 1 -2.5 2.5zm-2.937-6.936a1.5 1.5 0 0 0 -1.5 1.5v2.936a1.5 1.5 0 0 0 1.5 1.5h2.937a1.5 1.5 0 0 0 1.5-1.5v-2.936a1.5 1.5 0 0 0 -1.5-1.5z"/><path d="m18.436 11h-2.936a2.5 2.5 0 0 1 -2.5-2.5v-2.936a2.5 2.5 0 0 1 2.5-2.5h2.934a2.5 2.5 0 0 1 2.5 2.5v2.936a2.5 2.5 0 0 1 -2.498 2.5zm-2.936-6.936a1.5 1.5 0 0 0 -1.5 1.5v2.936a1.5 1.5 0 0 0 1.5 1.5h2.934a1.5 1.5 0 0 0 1.5-1.5v-2.936a1.5 1.5 0 0 0 -1.5-1.5z"/><path d="m8.5 20.936h-2.936a2.5 2.5 0 0 1 -2.5-2.5v-2.936a2.5 2.5 0 0 1 2.5-2.5h2.936a2.5 2.5 0 0 1 2.5 2.5v2.936a2.5 2.5 0 0 1 -2.5 2.5zm-2.936-6.936a1.5 1.5 0 0 0 -1.5 1.5v2.936a1.5 1.5 0 0 0 1.5 1.5h2.936a1.5 1.5 0 0 0 1.5-1.5v-2.936a1.5 1.5 0 0 0 -1.5-1.5z"/><path d="m18.436 20.936h-2.936a2.5 2.5 0 0 1 -2.5-2.5v-2.936a2.5 2.5 0 0 1 2.5-2.5h2.934a2.5 2.5 0 0 1 2.5 2.5v2.936a2.5 2.5 0 0 1 -2.498 2.5zm-2.936-6.936a1.5 1.5 0 0 0 -1.5 1.5v2.936a1.5 1.5 0 0 0 1.5 1.5h2.934a1.5 1.5 0 0 0 1.5-1.5v-2.936a1.5 1.5 0 0 0 -1.5-1.5z"/></svg>