<svg enable-background="new 0 0 46.8926 60" viewBox="0 0 46.8926 60" xmlns="http://www.w3.org/2000/svg"><path d="m25.9483 42.0762c0 1.3828-1.1192 2.5009-2.5015 2.5009-1.3789 0-2.502-1.1181-2.502-2.5009 0-1.3809 1.1231-2.4991 2.502-2.4991 1.3823 0 2.5015 1.1182 2.5015 2.4991z" fill="#f16061"/><path d="m23.4468 12.2217c0-6.1988-5.0215-11.2217-11.2246-11.2217-6.1973 0-11.2222 5.0229-11.2222 11.2217 0 3.2485 1.4024 6.1465 3.6055 8.1997l-.0279.0073 18.8692 18.8692 18.8755-18.8692c-.0078-.0073-.0137-.0073-.0215-.0141 2.2012-2.0503 3.5918-4.9444 3.5918-8.1929 0-6.1988-5.0215-11.2217-11.2246-11.2217-6.1944 0-11.2212 5.0229-11.2212 11.2217z" fill="#f16061"/><g fill="#393939"><path d="m23.4468 45.5771c-1.9307 0-3.502-1.5703-3.502-3.5009 0-1.9297 1.5713-3.4991 3.502-3.4991 1.9311 0 3.5015 1.5694 3.5015 3.4991 0 1.9306-1.5704 3.5009-3.5015 3.5009zm0-5c-.8281 0-1.502.6729-1.502 1.4991 0 .8281.6739 1.5009 1.502 1.5009s1.5015-.6728 1.5015-1.5009c0-.8262-.6734-1.4991-1.5015-1.4991z"/><path d="m23.2437 60c-.5528 0-1-.4473-1-1 0-1.1836.6601-2.1406 1.2988-3.0645.6396-.9257 1.3013-1.8837 1.4097-3.1552.0888-1.0381-.6294-2.3545-1.3238-3.628-.955-1.7519-1.9433-3.5644-1.0185-5.1523.2783-.4766.8906-.6377 1.3672-.3604.478.2784.6391.8907.3613 1.3682-.3574.6133.3882 1.9805 1.0464 3.1865.7969 1.4619 1.7011 3.1192 1.5595 4.7569-.1533 1.7998-1.0419 3.0859-1.7558 4.1211-.5068.7334-.9448 1.3672-.9448 1.9277 0 .5527-.4473 1-1 1z"/><path d="m39.7158 15.5415c-.5537 0-1.0009-.4478-1.0009-1 0-2.7925-2.5684-6.2031-5.5655-6.2031-.5527 0-1.001-.4478-1.001-1 0-.5523.4483-1 1.001-1 4.2598 0 7.5655 4.4096 7.5655 8.2031 0 .5522-.4473 1-.9991 1z"/><path d="m23.4468 40.2979c-.2559 0-.5117-.0977-.707-.293l-18.8687-18.8692c-.0469-.0463-.0879-.0966-.123-.1499-2.419-2.3398-3.7481-5.4423-3.7481-8.7641 0-6.7393 5.4834-12.2217 12.2222-12.2217 5.0215 0 9.3457 3.0425 11.2246 7.3804 1.8794-4.3379 6.2007-7.3804 11.2212-7.3804 6.7402 0 12.2246 5.4824 12.2246 12.2217 0 3.3281-1.3252 6.4297-3.7373 8.7612-.0371.0547-.0791.106-.126.1528l-18.8755 18.8692c-.1953.1953-.4512.293-.707.293zm-17.9961-20.4107 17.9961 17.9966 18.0073-18.001c.0459-.0727.1006-.1401.1651-.2002 2.1113-1.9658 3.2734-4.6157 3.2734-7.4609 0-5.6363-4.5869-10.2217-10.2246-10.2217-5.6358 0-10.2207 4.5854-10.2207 10.2217 0 .5522-.4478 1-1.0005 1s-1-.4478-1-1c0-5.6363-4.5869-10.2217-10.2246-10.2217-5.6367 0-10.2222 4.5854-10.2222 10.2217 0 2.8403 1.167 5.4927 3.2866 7.4682.0635.0591.1182.1255.1641.1973z"/></g></svg>