<svg height="20" viewBox="0 0 20 20" width="20" xmlns="http://www.w3.org/2000/svg"><path d="m1831.7796 214c-4.29645 0-7.7796 3.483774-7.7796 7.78 0 4.297028 3.48315 7.78 7.7796 7.78 4.29725 0 7.7804-3.482972 7.7804-7.78 0-4.296226-3.48315-7.78-7.7804-7.78zm2.56517 4.196418c-.23658-.394473-.56983-.706309-1.00155-.934729-.43171-.22842-.92964-.344189-1.49416-.344189-.60595 0-1.13718.137208-1.59227.411234-.45508.274026-.80073.619385-1.03872 1.038414-.23799.417081-.35557.829874-.35557 1.236431 0 .196067.07473.378881.22418.548052.1491.168781.33325.254146.55177.254146.36796 0 .61976-.242063.75257-.726188.13989-.463077.3113-.813113.51316-1.050498.20222-.237775.51742-.356273.94488-.356273.36655 0 .66545.118498.89671.353154.23091.235826.34707.525055.34707.867685 0 .175407-.03719.338342-.11333.487243-.07614.150851-.16893.2865-.28084.408116-.11085.122006-.29076.303261-.53973.542205-.28332.274026-.50891.511411-.67643.710987-.16716.198016-.30138.429554-.40267.692666-.10093.263501-.15193.575727-.15193.935118 0 .28611.06906.502446.20753.64862.13812.146173.30847.217505.51034.217505.38886 0 .61976-.222183.69449-.66655.04285-.210489.07472-.357832.09562-.440078.02196-.083806.051-.167612.09102-.251418.03895-.083806.09845-.175018.17707-.275585.08039-.100568.18699-.217896.31838-.350036.47846-.470483.81066-.805707.99446-1.004892.18558-.199576.34459-.435792.48023-.709818.13422-.274026.20045-.593658.20045-.956167 0-.462687-.11758-.890682-.35273-1.285155m-2.01548 6.801536c.1661.182814.25038.411234.25038.680973 0 .299752-.08712.534409-.26278.706309-.17459.17073-.37788.257264-.60737.257264-.23657 0-.4441-.085365-.62118-.254146-.17707-.169171-.26561-.406557-.26561-.709427 0-.269739.0857-.498159.25711-.680973.17177-.183983.38072-.277144.62968-.277144.24472 0 .45226.093161.61977.277144" fill="#b8bdbf" fill-rule="evenodd" transform="translate(-1822 -212)"/></svg>