<?xml version="1.0" encoding="utf-8"?>
<!-- Svg Vector Icons : http://www.onlinewebfonts.com/icon -->
<!DOCTYPE svg PUBLIC "-//W3C//DTD SVG 1.1//EN" "http://www.w3.org/Graphics/SVG/1.1/DTD/svg11.dtd">
<svg version="1.1" xmlns="http://www.w3.org/2000/svg" xmlns:xlink="http://www.w3.org/1999/xlink" x="0px" y="0px" viewBox="0 0 256 256" enable-background="new 0 0 256 256" xml:space="preserve">
<metadata> Svg Vector Icons : http://www.onlinewebfonts.com/icon </metadata>
<g><g><path fill="#000000" d="M105,159c7.4,7.4,19.6,7.4,27.1,0L240.4,50.7c7.4-7.4,7.4-19.6,0-27.1c-7.4-7.4-19.6-7.4-27.1,0L105,131.9C97.6,139.4,97.6,151.5,105,159z"/><path fill="#000000" d="M227.1,132.9c-7.1,0-12.7,5.7-12.7,12.8v52.7c0,14.1-5.5,19.1-19.6,19.1H67.1c-14.1,0-31.6-5-31.6-19.1V70.7c0-14.1,17.6-32.2,31.6-32.2h51.2c7.1,0,12.8-5.7,12.8-12.7c0-7.1-5.7-12.7-12.8-12.7H67.1C38.9,13.1,10,42.6,10,70.7v127.7c0,28.2,28.9,44.5,57.1,44.5h127.7c28.2,0,45.1-16.4,45.1-44.5v-52.7C239.8,138.6,234.2,132.9,227.1,132.9z"/></g></g>
</svg>