<svg fill="none" height="24" viewBox="0 0 24 24" width="24" xmlns="http://www.w3.org/2000/svg"><g fill="#212121"><path d="m5 6c0-.55228.44772-1 1-1h2c.55228 0 1-.44772 1-1s-.44772-1-1-1h-2c-1.65685 0-3 1.34315-3 3v2c0 .55228.44772 1 1 1s1-.44772 1-1z"/><path d="m5 18c0 .5523.44772 1 1 1h2c.55228 0 1 .4477 1 1s-.44772 1-1 1h-2c-1.65685 0-3-1.3431-3-3v-2c0-.5523.44772-1 1-1s1 .4477 1 1z"/><path d="m18 5c.5523 0 1 .44772 1 1v2c0 .55228.4477 1 1 1s1-.44772 1-1v-2c0-1.65685-1.3431-3-3-3h-2c-.5523 0-1 .44772-1 1s.4477 1 1 1z"/><path d="m19 18c0 .5523-.4477 1-1 1h-2c-.5523 0-1 .4477-1 1s.4477 1 1 1h2c1.6569 0 3-1.3431 3-3v-2c0-.5523-.4477-1-1-1s-1 .4477-1 1z"/></g></svg>