<svg enable-background="new 0 0 32 32" height="32" viewBox="0 0 32 32" width="32" xmlns="http://www.w3.org/2000/svg"><path d="m16 29.5c-1.306 0-2.129-.219-2.445-.649-.387-.526-.067-1.542.241-2.524.383-1.217.817-2.598.073-3.61-.608-.83-1.838-1.217-3.869-1.217-7.415 0-7.5-6.234-7.5-6.5 0-6.776 6.182-12.5 13.5-12.5 7.444 0 13.5 6.056 13.5 13.5 0 8.075-5.425 13.5-13.5 13.5z" fill="#f4b184"/><circle cx="8" cy="14" fill="#ffe578" r="2.5"/><circle cx="14" cy="9" fill="#a9fdff" r="2.5"/><circle cx="22" cy="11" fill="#7dff9f" r="2.5"/><circle cx="24" cy="19" fill="#ff5757" r="2.5"/><path d="m8 12c1.103 0 2 .897 2 2s-.897 2-2 2-2-.897-2-2 .897-2 2-2m0-1c-1.657 0-3 1.343-3 3s1.343 3 3 3 3-1.343 3-3-1.343-3-3-3zm6-4c1.103 0 2 .897 2 2s-.897 2-2 2-2-.897-2-2 .897-2 2-2m0-1c-1.657 0-3 1.343-3 3s1.343 3 3 3 3-1.343 3-3-1.343-3-3-3zm8 3c1.103 0 2 .897 2 2s-.897 2-2 2-2-.897-2-2 .897-2 2-2m0-1c-1.656 0-3 1.343-3 3s1.344 3 3 3 3-1.343 3-3-1.344-3-3-3zm2 9c1.103 0 2 .897 2 2s-.897 2-2 2-2-.897-2-2 .897-2 2-2m0-1c-1.656 0-3 1.344-3 3s1.344 3 3 3 3-1.344 3-3-1.344-3-3-3zm-8-13c7.168 0 13 5.832 13 13 0 6.471-4.02 13-13 13-1.591 0-1.965-.341-2.042-.445-.236-.322.07-1.296.315-2.078.418-1.331.893-2.839 0-4.057-.711-.969-2.069-1.42-4.273-1.42-6.755 0-6.995-5.39-7-6 0-6.505 5.953-12 13-12m0-1c-7.732 0-14 6-14 13 0 0 0 7 8 7 9 0-2 8 6 8 9 0 14-6.268 14-14s-6.268-14-14-14z" fill="#3d3d3d"/></svg>