<svg viewBox="0 0 64 64" xmlns="http://www.w3.org/2000/svg"><g fill="#616466"><path d="m28 58c0 2.2 1.8 4 4 4s4-1.8 4-4z"/><path d="m25.9 51.8h12.3v1.8h-12.3z"/><path d="m26.9 55.5h10.3v1.8h-10.3z"/></g><path d="m24.9 48h14.1c.8-4.3 3.5-8.5 6.3-12.9 3.3-5.1 6.7-10.4 6.7-15.5 0-9.7-9-17.6-20-17.6s-20 7.9-20 17.6c0 5.1 3.4 10.4 6.6 15.5 2.8 4.4 5.5 8.6 6.3 12.9" fill="#ffce31"/><path d="m17.92669 34.010994c.231184.364499.463037.728207.69431 1.091006 2.804 4.393 5.482 8.586 6.317 12.898h14.125c.838-4.313 3.513-8.505 6.315-12.898.231344-.362799.463264-.726507.694509-1.091006" fill="#eff0f1"/><g fill="#94989b"><path d="m24.9 50h14.3v1.8h-14.3zm1 3.6h12.3v1.8h-12.3z"/><path d="m39.2 50-13.3 3.6v1.9l13.3-3.7zm-12.3 7.3h10.3v1.8h-10.3z"/><path d="m38.2 53.6-11.3 3.7v1.9l11.3-3.7z"/></g></svg>