<svg fill="none" height="24" viewBox="0 0 24 24" width="24" xmlns="http://www.w3.org/2000/svg"><g fill="#212121"><path d="m9 4c0-.55228-.44772-1-1-1s-1 .44772-1 1v2.5c0 .27614-.22386.5-.5.5h-2.5c-.55228 0-1 .44772-1 1s.44772 1 1 1h2.5c1.38071 0 2.5-1.11929 2.5-2.5z"/><path d="m9 20c0 .5523-.44772 1-1 1s-1-.4477-1-1v-2.5c0-.2761-.22386-.5-.5-.5h-2.5c-.55228 0-1-.4477-1-1s.44772-1 1-1h2.5c1.38071 0 2.5 1.1193 2.5 2.5z"/><path d="m16 3c-.5523 0-1 .44772-1 1v2.5c0 1.38071 1.1193 2.5 2.5 2.5h2.5c.5523 0 1-.44772 1-1s-.4477-1-1-1h-2.5c-.2761 0-.5-.22386-.5-.5v-2.5c0-.55228-.4477-1-1-1z"/><path d="m15 20c0 .5523.4477 1 1 1s1-.4477 1-1v-2.5c0-.2761.2239-.5.5-.5h2.5c.5523 0 1-.4477 1-1s-.4477-1-1-1h-2.5c-1.3807 0-2.5 1.1193-2.5 2.5z"/></g></svg>