<svg height="56" viewBox="0 0 56 56" width="56" xmlns="http://www.w3.org/2000/svg"><path d="m7.7148 49.5742h40.5704c4.8984 0 7.3594-2.4375 7.3594-7.2656v-28.6172c0-4.8281-2.461-7.2656-7.3594-7.2656h-40.5704c-4.875 0-7.3594 2.414-7.3594 7.2656v28.6172c0 4.8516 2.4844 7.2656 7.3594 7.2656zm.0703-3.7734c-2.3438 0-3.6563-1.2422-3.6563-3.6797v-28.2422c0-2.4375 1.3125-3.6797 3.6563-3.6797h10.4297v35.6016zm40.4296-35.6016c2.3203 0 3.6561 1.2422 3.6561 3.6797v28.2422c0 2.4375-1.3358 3.6797-3.6561 3.6797h-26.3203v-35.6016zm-34.4999 8.6953c.7031 0 1.3359-.6328 1.3359-1.3125 0-.7031-.6328-1.3124-1.3359-1.3124h-5.0391c-.7031 0-1.3125.6093-1.3125 1.3124 0 .6797.6094 1.3125 1.3125 1.3125zm0 6.0704c.7031 0 1.3359-.6329 1.3359-1.336s-.6328-1.2891-1.3359-1.2891h-5.0391c-.7031 0-1.3125.586-1.3125 1.2891s.6094 1.336 1.3125 1.336zm0 6.0469c.7031 0 1.3359-.586 1.3359-1.2891s-.6328-1.3125-1.3359-1.3125h-5.0391c-.7031 0-1.3125.6094-1.3125 1.3125s.6094 1.2891 1.3125 1.2891z"/></svg>